<svg xmlns="http://www.w3.org/2000/svg" xmlns:xlink="http://www.w3.org/1999/xlink" width="430.71" height="432.155" viewBox="0 0 430.71 432.155">
  <defs>
    <style>
      .cls-1, .cls-11, .cls-12, .cls-13, .cls-14, .cls-16, .cls-17, .cls-18, .cls-19, .cls-2, .cls-20, .cls-21, .cls-22, .cls-23, .cls-24, .cls-25, .cls-26, .cls-27, .cls-28, .cls-29, .cls-30, .cls-31, .cls-32, .cls-33, .cls-34, .cls-35, .cls-36, .cls-37, .cls-38, .cls-39, .cls-4, .cls-40, .cls-41, .cls-42, .cls-43, .cls-44, .cls-45, .cls-46, .cls-48, .cls-49, .cls-50, .cls-51, .cls-52, .cls-53, .cls-54, .cls-7, .cls-8 {
        stroke: #707070;
        stroke-width: 0.5px;
      }

      .cls-1 {
        fill: url(#linear-gradient);
      }

      .cls-2 {
        fill: url(#linear-gradient-2);
      }

      .cls-3 {
        mix-blend-mode: luminosity;
      }

      .cls-10, .cls-3, .cls-33, .cls-36, .cls-47, .cls-53, .cls-6 {
        isolation: isolate;
      }

      .cls-4 {
        fill: #f4f7fa;
      }

      .cls-5 {
        clip-path: url(#clip-path);
      }

      .cls-6 {
        opacity: 0.5;
      }

      .cls-10, .cls-6 {
        mix-blend-mode: soft-light;
      }

      .cls-7 {
        fill: #fff;
      }

      .cls-8 {
        fill: url(#linear-gradient-4);
      }

      .cls-9 {
        clip-path: url(#clip-path-2);
      }

      .cls-10, .cls-15 {
        opacity: 0.8;
      }

      .cls-11 {
        fill: url(#linear-gradient-6);
      }

      .cls-12 {
        fill: url(#linear-gradient-7);
      }

      .cls-13 {
        fill: url(#linear-gradient-8);
      }

      .cls-14 {
        fill: url(#linear-gradient-9);
      }

      .cls-16 {
        fill: url(#linear-gradient-10);
      }

      .cls-17 {
        fill: url(#linear-gradient-11);
      }

      .cls-18 {
        fill: #d8dee8;
      }

      .cls-19 {
        fill: url(#linear-gradient-12);
      }

      .cls-20 {
        fill: url(#linear-gradient-13);
      }

      .cls-21 {
        fill: url(#linear-gradient-14);
      }

      .cls-22 {
        fill: url(#linear-gradient-15);
      }

      .cls-23 {
        fill: url(#linear-gradient-16);
      }

      .cls-24 {
        fill: url(#linear-gradient-17);
      }

      .cls-25 {
        fill: url(#linear-gradient-18);
      }

      .cls-26 {
        fill: url(#linear-gradient-19);
      }

      .cls-27 {
        fill: url(#linear-gradient-20);
      }

      .cls-28 {
        fill: url(#linear-gradient-21);
      }

      .cls-29 {
        fill: url(#linear-gradient-22);
      }

      .cls-30 {
        fill: url(#linear-gradient-23);
      }

      .cls-31 {
        fill: url(#linear-gradient-24);
      }

      .cls-32, .cls-33 {
        fill: url(#linear-gradient-25);
      }

      .cls-33, .cls-36, .cls-47, .cls-53 {
        opacity: 0.3;
        mix-blend-mode: multiply;
      }

      .cls-34 {
        fill: url(#linear-gradient-27);
      }

      .cls-35 {
        fill: url(#linear-gradient-28);
      }

      .cls-36 {
        fill: url(#linear-gradient-29);
      }

      .cls-37 {
        fill: #9d3060;
      }

      .cls-38 {
        fill: url(#linear-gradient-30);
      }

      .cls-39 {
        fill: url(#linear-gradient-31);
      }

      .cls-40 {
        fill: url(#linear-gradient-32);
      }

      .cls-41 {
        fill: url(#linear-gradient-33);
      }

      .cls-42 {
        fill: url(#linear-gradient-34);
      }

      .cls-43 {
        fill: url(#linear-gradient-35);
      }

      .cls-44 {
        fill: url(#linear-gradient-36);
      }

      .cls-45 {
        fill: url(#linear-gradient-37);
      }

      .cls-46 {
        fill: url(#linear-gradient-38);
      }

      .cls-48 {
        fill: url(#linear-gradient-39);
      }

      .cls-49 {
        fill: url(#linear-gradient-40);
      }

      .cls-50, .cls-53 {
        fill: url(#linear-gradient-41);
      }

      .cls-51 {
        fill: url(#linear-gradient-42);
      }

      .cls-52 {
        fill: url(#linear-gradient-43);
      }

      .cls-54 {
        fill: url(#linear-gradient-45);
      }
    </style>
    <linearGradient id="linear-gradient" x1="0.727" y1="0.139" x2="0.133" y2="0.991" gradientUnits="objectBoundingBox">
      <stop offset="0" stop-color="#ff9085"/>
      <stop offset="1" stop-color="#fb6fbb"/>
    </linearGradient>
    <linearGradient id="linear-gradient-2" x1="0.808" y1="-0.011" x2="0.107" y2="1.072" gradientUnits="objectBoundingBox">
      <stop offset="0" stop-color="#ffc444"/>
      <stop offset="0.996" stop-color="#f36f56"/>
    </linearGradient>
    <clipPath id="clip-path">
      <path id="SVGID" class="cls-1" d="M1674,759.689c-22,1.216-63.928-86.694-34.633-133.469,12.224-19.519,30.673-22.011,38.475-46.866,6.961-22.178-4.651-29.995-1-54.7,5.13-34.734,35.933-72.388,64.3-69.5,14.235,1.449,30.16,13.339,34.761,30.23,3.685,13.528-7.5,27.29-3.548,30.03,3.247,2.25,9.835-6.917,15.631-5.208,8.549,2.52,14.449,28.423,6.722,50.15-13.228,37.2-57.98,38.5-59.808,65.3-1.166,17.087,16.618,22.41,13.688,40.014-2.577,15.488-17.519,18.433-36.642,37.606C1682,733.315,1685.8,759.037,1674,759.689Z" transform="translate(-1629.323 -455)"/>
    </clipPath>
    <linearGradient id="linear-gradient-4" x1="-0.051" y1="0.205" x2="-0.752" y2="1.288" xlink:href="#linear-gradient-2"/>
    <clipPath id="clip-path-2">
      <path id="SVGID-2" data-name="SVGID" class="cls-2" d="M1844.918,1803.863c-7.2-35.113-6.193-62.323-4.093-80.075,1.648-13.934,5.316-33.409,15.229-35.857,4.75-1.173,7.459,2.422,12.418.969,9.363-2.745,9.123-18.324,15.031-29.656,10.108-19.385,42.649-34.85,65.951-23.388,28.06,13.8,31.043,60.905,15.954,75.42-8.941,8.6-24.938,6.444-25.808,12.7-.876,6.3,15.156,9.707,16.281,19.8,1.164,10.448-14.556,19.917-15.51,20.478-19.051,11.2-34.038-.384-54.945,4.785C1874.085,1771.842,1859.306,1780,1844.918,1803.863Z" transform="translate(-1839.285 -1631.937)"/>
    </clipPath>
    <linearGradient id="linear-gradient-6" x1="0.491" y1="0.477" x2="0.209" y2="0.496" gradientUnits="objectBoundingBox">
      <stop offset="0" stop-color="#444b8c"/>
      <stop offset="0.996" stop-color="#26264f"/>
    </linearGradient>
    <linearGradient id="linear-gradient-7" x1="0.708" y1="0.034" x2="0.013" y2="1.514" xlink:href="#linear-gradient-6"/>
    <linearGradient id="linear-gradient-8" x1="-0.049" y1="0.429" x2="0.696" y2="0.528" gradientUnits="objectBoundingBox">
      <stop offset="0.004" stop-color="#e38ddd"/>
      <stop offset="1" stop-color="#9571f6"/>
    </linearGradient>
    <linearGradient id="linear-gradient-9" x1="1.226" y1="-1.493" x2="-27.991" y2="78.646" gradientUnits="objectBoundingBox">
      <stop offset="0" stop-color="#311944"/>
      <stop offset="1" stop-color="#893976"/>
    </linearGradient>
    <linearGradient id="linear-gradient-10" x1="0.778" y1="1.854" x2="0.547" y2="0.93" xlink:href="#linear-gradient"/>
    <linearGradient id="linear-gradient-11" x1="0.507" y1="0.38" x2="0.65" y2="1.756" gradientUnits="objectBoundingBox">
      <stop offset="0.004" stop-color="#f36f56"/>
      <stop offset="1" stop-color="#ffc444"/>
    </linearGradient>
    <linearGradient id="linear-gradient-12" x1="8.04" y1="-23.003" x2="8.912" y2="-23.003" gradientUnits="objectBoundingBox">
      <stop offset="0" stop-color="#aa80f9"/>
      <stop offset="0.996" stop-color="#6165d7"/>
    </linearGradient>
    <linearGradient id="linear-gradient-13" x1="9.572" y1="-21.661" x2="10.444" y2="-21.661" xlink:href="#linear-gradient-12"/>
    <linearGradient id="linear-gradient-14" x1="10.317" y1="-21.008" x2="11.189" y2="-21.008" xlink:href="#linear-gradient-12"/>
    <linearGradient id="linear-gradient-15" x1="32.828" y1="-8.492" x2="35.618" y2="-8.492" xlink:href="#linear-gradient"/>
    <linearGradient id="linear-gradient-16" x1="-39.289" y1="-32.66" x2="-38.533" y2="-32.66" xlink:href="#linear-gradient"/>
    <linearGradient id="linear-gradient-17" x1="-0.638" y1="-0.183" x2="-0.755" y2="-1.278" gradientUnits="objectBoundingBox">
      <stop offset="0.004" stop-color="#26264f"/>
      <stop offset="1" stop-color="#444b8c"/>
    </linearGradient>
    <linearGradient id="linear-gradient-18" x1="-0.023" y1="-2.222" x2="0.035" y2="0.691" xlink:href="#linear-gradient-11"/>
    <linearGradient id="linear-gradient-19" x1="-55.505" y1="-8.061" x2="-54.052" y2="-6.475" xlink:href="#linear-gradient-11"/>
    <linearGradient id="linear-gradient-20" x1="0.725" y1="0.882" x2="1.098" y2="1.618" xlink:href="#linear-gradient-11"/>
    <linearGradient id="linear-gradient-21" x1="-34.609" y1="4.337" x2="-35.391" y2="-3.322" xlink:href="#linear-gradient-6"/>
    <linearGradient id="linear-gradient-22" x1="-126.86" y1="3.104" x2="-126.86" y2="-6.663" xlink:href="#linear-gradient-2"/>
    <linearGradient id="linear-gradient-23" x1="-87.483" y1="2.649" x2="-87.483" y2="-7.106" xlink:href="#linear-gradient-2"/>
    <linearGradient id="linear-gradient-24" x1="-40.472" y1="1.617" x2="-41.45" y2="-2.422" xlink:href="#linear-gradient-6"/>
    <linearGradient id="linear-gradient-25" x1="-15.874" y1="0.123" x2="-16.044" y2="1.091" xlink:href="#linear-gradient-9"/>
    <linearGradient id="linear-gradient-27" x1="-7.862" y1="0.541" x2="-10.367" y2="0.501" xlink:href="#linear-gradient-9"/>
    <linearGradient id="linear-gradient-28" x1="0.476" y1="0.269" x2="0.662" y2="1.092" xlink:href="#linear-gradient"/>
    <linearGradient id="linear-gradient-29" x1="0.386" y1="0.009" x2="0.654" y2="1.163" xlink:href="#linear-gradient"/>
    <linearGradient id="linear-gradient-30" x1="0" y1="0.5" x2="1" y2="0.5" xlink:href="#linear-gradient-2"/>
    <linearGradient id="linear-gradient-31" x1="21.829" y1="-3.524" x2="22.061" y2="6.387" xlink:href="#linear-gradient-6"/>
    <linearGradient id="linear-gradient-32" x1="63.417" y1="0.5" x2="64.417" y2="0.5" gradientUnits="objectBoundingBox">
      <stop offset="0" stop-color="#311944"/>
      <stop offset="1" stop-color="#a03976"/>
    </linearGradient>
    <linearGradient id="linear-gradient-33" x1="38.816" y1="-1.189" x2="39.115" y2="2.684" xlink:href="#linear-gradient-6"/>
    <linearGradient id="linear-gradient-34" x1="42.596" y1="0.5" x2="43.596" y2="0.5" xlink:href="#linear-gradient-32"/>
    <linearGradient id="linear-gradient-35" x1="9.594" y1="0.957" x2="9.545" y2="0.445" xlink:href="#linear-gradient-9"/>
    <linearGradient id="linear-gradient-36" x1="8.278" y1="0.99" x2="8.243" y2="0.442" xlink:href="#linear-gradient-9"/>
    <linearGradient id="linear-gradient-37" x1="4.33" y1="0.683" x2="4.114" y2="0.44" xlink:href="#linear-gradient-6"/>
    <linearGradient id="linear-gradient-38" x1="0.778" y1="0.41" x2="-0.126" y2="0.906" xlink:href="#linear-gradient-2"/>
    <linearGradient id="linear-gradient-39" x1="4.836" y1="-0.146" x2="5.049" y2="0.812" xlink:href="#linear-gradient-2"/>
    <linearGradient id="linear-gradient-40" x1="7.955" y1="-0.061" x2="8.337" y2="1.755" xlink:href="#linear-gradient-2"/>
    <linearGradient id="linear-gradient-41" x1="0" y1="0.5" x2="1" y2="0.5" xlink:href="#linear-gradient"/>
    <linearGradient id="linear-gradient-42" x1="6.7" y1="-6.179" x2="6.569" y2="-5.566" xlink:href="#linear-gradient-32"/>
    <linearGradient id="linear-gradient-43" x1="21.274" y1="-11.417" x2="19.781" y2="-9.766" xlink:href="#linear-gradient-32"/>
    <linearGradient id="linear-gradient-45" x1="25.753" y1="1.792" x2="26.639" y2="-0.608" xlink:href="#linear-gradient-32"/>
  </defs>
  <g id="Group_40" data-name="Group 40" class="cls-3" transform="translate(0.275 0.272)">
    <g id="Group_39" data-name="Group 39" transform="translate(0 0)">
      <path id="Path_1" data-name="Path 1" class="cls-4" d="M642.61,474.263c-110.119-3.252-205.505,76.65-219.917,181.492-15.756,114.63,70.966,217.769,177.674,234.288,132.727,20.547,261.464-98.321,249.905-227.275C841.564,565.612,754.548,477.569,642.61,474.263Z" transform="translate(-420.837 -471.213)"/>
      <g id="Group_4" data-name="Group 4" transform="translate(186.294)">
        <g id="Group_3" data-name="Group 3">
          <path id="SVGID-3" data-name="SVGID" class="cls-1" d="M1674,759.689c-22,1.216-63.928-86.694-34.633-133.469,12.224-19.519,30.673-22.011,38.475-46.866,6.961-22.178-4.651-29.995-1-54.7,5.13-34.734,35.933-72.388,64.3-69.5,14.235,1.449,30.16,13.339,34.761,30.23,3.685,13.528-7.5,27.29-3.548,30.03,3.247,2.25,9.835-6.917,15.631-5.208,8.549,2.52,14.449,28.423,6.722,50.15-13.228,37.2-57.98,38.5-59.808,65.3-1.166,17.087,16.618,22.41,13.688,40.014-2.577,15.488-17.519,18.433-36.642,37.606C1682,733.315,1685.8,759.037,1674,759.689Z" transform="translate(-1629.323 -455)"/>
          <g id="Group_2" data-name="Group 2" class="cls-5">
            <g id="Group_1" data-name="Group 1" class="cls-6" transform="translate(9.025 -32.559)">
              <path id="Path_2" data-name="Path 2" class="cls-7" d="M1909.478,600.359a1.1,1.1,0,0,1-1.279-1.576,47.651,47.651,0,0,0-.941-5.29c-2.85-13.9-10.419-50.826-2.9-109.583,9.459-73.9,38.948-154.5,87.648-239.57a1.1,1.1,0,0,1,1.91,1.094c-52.323,91.4-109.456,225.9-84.5,347.617,1.129,5.506,1.332,6.5.381,7.156A1.1,1.1,0,0,1,1909.478,600.359Z" transform="translate(-1868.25 -243.787)"/>
              <path id="Path_3" data-name="Path 3" class="cls-7" d="M2044.9,920a1.1,1.1,0,0,1-.671-2.1c47.227-16.515,75.234-33.429,90.413-44.71,16.435-12.216,21.78-20.634,21.832-20.718a1.1,1.1,0,0,1,1.871,1.16c-.218.352-5.521,8.755-22.209,21.19-15.31,11.408-43.555,28.5-91.18,45.156Z" transform="translate(-1988.671 -758.203)"/>
              <path id="Path_4" data-name="Path 4" class="cls-7" d="M1998.365,471.848a1.094,1.094,0,0,1-.686-.023c-12.853-4.7-21.714-20.639-26.336-47.358a232.858,232.858,0,0,1-3.119-38.473,1.1,1.1,0,1,1,2.2.039c-.012.73-.946,73.125,28.011,83.726a1.1,1.1,0,0,1-.071,2.09Z" transform="translate(-1925 -363.157)"/>
              <path id="Path_5" data-name="Path 5" class="cls-7" d="M1723.909,1440.341a1.1,1.1,0,0,1-.935-.152c-17.786-12.32-26.383-33.849-30.464-49.739a151.393,151.393,0,0,1-4.641-31.759,1.1,1.1,0,0,1,2.2-.029,149.187,149.187,0,0,0,4.585,31.289c3.989,15.511,12.357,36.5,29.572,48.429a1.1,1.1,0,0,1-.318,1.961Z" transform="translate(-1687.87 -1185.88)"/>
            </g>
          </g>
        </g>
      </g>
      <g id="Group_9" data-name="Group 9" transform="translate(218.66 181.43)">
        <path id="Path_6" data-name="Path 6" class="cls-8" d="M1844.918,1803.863c-7.2-35.113-6.193-62.323-4.093-80.075,1.648-13.934,5.316-33.409,15.229-35.857,4.75-1.173,7.459,2.422,12.418.969,9.363-2.745,9.123-18.324,15.031-29.656,10.108-19.385,42.649-34.85,65.951-23.388,28.06,13.8,31.043,60.905,15.954,75.42-8.941,8.6-24.938,6.444-25.808,12.7-.876,6.3,15.156,9.707,16.281,19.8,1.164,10.448-14.556,19.917-15.51,20.478-19.051,11.2-34.038-.384-54.945,4.785C1874.085,1771.842,1859.306,1780,1844.918,1803.863Z" transform="translate(-1839.285 -1631.937)"/>
        <g id="Group_8" data-name="Group 8">
          <path id="SVGID-4" data-name="SVGID" class="cls-2" d="M1844.918,1803.863c-7.2-35.113-6.193-62.323-4.093-80.075,1.648-13.934,5.316-33.409,15.229-35.857,4.75-1.173,7.459,2.422,12.418.969,9.363-2.745,9.123-18.324,15.031-29.656,10.108-19.385,42.649-34.85,65.951-23.388,28.06,13.8,31.043,60.905,15.954,75.42-8.941,8.6-24.938,6.444-25.808,12.7-.876,6.3,15.156,9.707,16.281,19.8,1.164,10.448-14.556,19.917-15.51,20.478-19.051,11.2-34.038-.384-54.945,4.785C1874.085,1771.842,1859.306,1780,1844.918,1803.863Z" transform="translate(-1839.285 -1631.937)"/>
          <g id="Group_7" data-name="Group 7" class="cls-9">
            <g id="Group_6" data-name="Group 6" class="cls-10" transform="translate(-24.045 4.391)">
              <g id="Group_5" data-name="Group 5">
                <path id="Path_7" data-name="Path 7" class="cls-7" d="M1850.3,1856.354l.545.021c3.122-84.026,55.759-157.095,140.8-195.458l-.224-.5c-40.3,18.182-74.607,45.229-99.2,78.217C1866.368,1773.316,1851.871,1814.022,1850.3,1856.354Z" transform="translate(-1824.555 -1660.418)"/>
                <path id="Path_8" data-name="Path 8" class="cls-7" d="M1683.305,2138.805c15.394,17.086,30.354,50.435,33.347,74.34l.542-.068c-3.005-24-18.026-57.482-33.483-74.638Z" transform="translate(-1683.305 -2064.75)"/>
                <path id="Path_9" data-name="Path 9" class="cls-7" d="M1855.5,2612.459l.519.17c3.915-11.9,13.693-21.354,29.063-28.114,11.27-4.957,25.227-8.374,41.486-10.157l-.06-.543c-16.314,1.789-30.326,5.22-41.646,10.2C1869.342,2590.84,1859.464,2600.41,1855.5,2612.459Z" transform="translate(-1828.954 -2433.011)"/>
                <path id="Path_10" data-name="Path 10" class="cls-7" d="M2126.159,1795.874l.509.2c8.532-22.042,2.735-46.212-3.631-62.607l-.509.2C2128.859,1749.967,2134.628,1773.995,2126.159,1795.874Z" transform="translate(-2054.82 -1722.204)"/>
                <path id="Path_11" data-name="Path 11" class="cls-7" d="M2392.244,1842.737l.257.482c23.511-12.5,51.094-7.989,65.444-4.187l.14-.528C2443.657,1834.682,2415.92,1830.149,2392.244,1842.737Z" transform="translate(-2282.958 -1807.636)"/>
              </g>
            </g>
          </g>
        </g>
      </g>
      <g id="Group_16" data-name="Group 16" transform="translate(50.79 39.961)">
        <g id="Group_12" data-name="Group 12" transform="translate(0 0)">
          <g id="Group_11" data-name="Group 11">
            <path id="Path_12" data-name="Path 12" class="cls-11" d="M944.273,727.187l40.257,334.607a8.817,8.817,0,0,1-7.7,10L809.157,1090.2c-10.272.639-15.9-4.609-16.53-9.944L750.362,724.51c-.63-5.305,4.409-10.109,14.725-10.109l169.2,3.564A10.666,10.666,0,0,1,944.273,727.187Z" transform="translate(-750.31 -714.375)"/>
            <path id="Path_13" data-name="Path 13" class="cls-12" d="M989.029,726.467l40.478,336.281a8.858,8.858,0,0,1-7.724,10.047L847.95,1090.1a10.162,10.162,0,0,1-11.082-8.762l-42.5-357.582c-.634-5.332,3.369-9.619,8.879-9.526L979,717.2A10.716,10.716,0,0,1,989.029,726.467Z" transform="translate(-787.519 -714.23)"/>
            <path id="Path_14" data-name="Path 14" class="cls-13" d="M1032.858,857.03l37.517,311.8a8.259,8.259,0,0,1-7.233,9.369L899.66,1194.089a9.478,9.478,0,0,1-10.3-8.179L850.078,855.588a7.9,7.9,0,0,1,8.243-8.929l165.161,1.759A9.943,9.943,0,0,1,1032.858,857.03Z" transform="translate(-834.646 -826.244)"/>
            <path id="Path_15" data-name="Path 15" class="cls-14" d="M1431.468,774.062a2.782,2.782,0,0,1-2.871,3.2,3.834,3.834,0,0,1-3.655-3.289,2.782,2.782,0,0,1,2.878-3.2A3.834,3.834,0,0,1,1431.468,774.062Z" transform="translate(-1320.924 -762.056)"/>
            <g id="Group_10" data-name="Group 10" class="cls-6" transform="translate(6.781)">
              <path id="Path_16" data-name="Path 16" class="cls-7" d="M957.466,954.314C924,892.436,874,873.914,858.948,810.141c-8.137-34.472-2.593-67.466,6.744-94.856l-62.447-1.054c-5.509-.093-9.512,4.193-8.879,9.526l42.5,357.582a10.162,10.162,0,0,0,11.082,8.762L984.6,1076.5C985.611,1021.051,972.385,981.9,957.466,954.314Z" transform="translate(-794.301 -714.229)"/>
            </g>
          </g>
        </g>
        <g id="Group_15" data-name="Group 15" class="cls-15" transform="translate(47.65 96.616)">
          <g id="Group_14" data-name="Group 14" transform="translate(31.938 97.582)">
            <path id="Path_17" data-name="Path 17" class="cls-7" d="M1366.064,1977.228a3.458,3.458,0,0,0-3.211-3.24l-93.552,2.493a2.99,2.99,0,0,0-2.683,3.488l1.078,10.2a3.5,3.5,0,0,0,3.38,3.222l93.444-2.913a2.833,2.833,0,0,0,2.551-3.319Z" transform="translate(-1266.597 -1973.986)"/>
            <path id="Path_18" data-name="Path 18" class="cls-7" d="M1427.222,2119.579a3.36,3.36,0,0,0-3.215-3.148l-74.2,2.418a2.926,2.926,0,0,0-2.668,3.411l5.139,48.8a3.4,3.4,0,0,0,3.347,3.146l73.912-3.508a2.883,2.883,0,0,0,2.554-3.356Zm-21.642,37.091a3.581,3.581,0,0,1-3.325,4.174l-20.936.93a4.183,4.183,0,0,1-4.229-3.869l-2.428-23.385a3.826,3.826,0,0,1,3.364-4.457l20.981-.752c2.074-.074,3.951,1.854,4.188,4.153Z" transform="translate(-1334.706 -2094.471)"/>
            <g id="Group_13" data-name="Group 13" transform="translate(43.543 41.614)">
              <path id="Path_19" data-name="Path 19" class="cls-7" d="M1558.482,2265.039a2.968,2.968,0,0,1-2.17-.857l-6.135-5.838a3.513,3.513,0,0,1-.477-4.583,2.746,2.746,0,0,1,4.155-.167l3.816,3.64,9.487-12.275a2.711,2.711,0,0,1,4.117-.156,3.513,3.513,0,0,1,.47,4.559L1560.453,2264A2.607,2.607,0,0,1,1558.482,2265.039Z" transform="translate(-1549.057 -2243.935)"/>
            </g>
          </g>
          <path id="Path_20" data-name="Path 20" class="cls-7" d="M1188.183,1340.974H1072.546a12.86,12.86,0,0,0-13.045,14.492l3.341,31.282c.863,8.087,8.267,14.7,16.113,14.579l115.148-1.844c7.344-.117,12.726-6.583,11.942-14.366l-3.038-30.168C1202.22,1347.142,1195.557,1340.974,1188.183,1340.974Z" transform="translate(-1059.418 -1340.974)"/>
        </g>
      </g>
      <g id="Group_35" data-name="Group 35" transform="translate(219.236 55.261)">
        <path id="Path_21" data-name="Path 21" class="cls-16" d="M2707.767,1701.294s-3.2,23.817,21.9,40.609l-26.7,6.37s-8.547-15.982-2.359-42.454Z" transform="translate(-2566.499 -1564.433)"/>
        <path id="Path_22" data-name="Path 22" class="cls-17" d="M2722.181,1666.463s-1.439-3.553-1.207-5.152,4.039-3.734,6.634-5.938-.1,2.217-.7,3.222-2.72,2.514-2.416,5.934Z" transform="translate(-2585.611 -1525.077)"/>
        <g id="Group_33" data-name="Group 33" transform="translate(0 0)">
          <g id="Group_26" data-name="Group 26">
            <rect id="Rectangle_1" data-name="Rectangle 1" class="cls-7" width="154.428" height="121.856" transform="translate(0 123.666) rotate(-53.207)"/>
            <g id="Group_25" data-name="Group 25" transform="translate(17.311 18.319)">
              <g id="Group_18" data-name="Group 18" transform="translate(60.59)">
                <g id="Group_17" data-name="Group 17">
                  <path id="Path_23" data-name="Path 23" class="cls-18" d="M2365.544,962.353,2348.36,949.5l12.852-17.184,17.185,12.852Zm-11.821-13.626,11.047,8.262,8.262-11.047-11.047-8.262Z" transform="translate(-2348.36 -932.316)"/>
                </g>
                <rect id="Rectangle_2" data-name="Rectangle 2" class="cls-18" width="9.58" height="72.807" transform="matrix(0.599, -0.801, 0.801, 0.599, 27.378, 30.483)"/>
              </g>
              <g id="Group_20" data-name="Group 20" transform="translate(40.393 27.004)">
                <g id="Group_19" data-name="Group 19">
                  <path id="Path_24" data-name="Path 24" class="cls-18" d="M2234.53,1137.528l-17.184-12.852,12.852-17.184,17.185,12.852Zm-11.821-13.626,11.047,8.262,8.262-11.047-11.047-8.262Z" transform="translate(-2217.345 -1107.491)"/>
                </g>
                <rect id="Rectangle_3" data-name="Rectangle 3" class="cls-18" width="9.58" height="72.807" transform="translate(27.378 30.483) rotate(-53.207)"/>
              </g>
              <g id="Group_22" data-name="Group 22" transform="translate(20.197 54.008)">
                <g id="Group_21" data-name="Group 21">
                  <path id="Path_25" data-name="Path 25" class="cls-18" d="M2103.515,1312.7l-17.184-12.852,12.852-17.184,17.185,12.852Zm-11.821-13.626,11.047,8.262,8.262-11.047-11.047-8.262Z" transform="translate(-2086.33 -1282.666)"/>
                </g>
                <rect id="Rectangle_4" data-name="Rectangle 4" class="cls-18" width="9.58" height="72.807" transform="matrix(0.599, -0.801, 0.801, 0.599, 27.378, 30.483)"/>
              </g>
              <g id="Group_24" data-name="Group 24" transform="translate(0 81.012)">
                <g id="Group_23" data-name="Group 23">
                  <path id="Path_26" data-name="Path 26" class="cls-18" d="M1972.5,1487.878l-17.185-12.852,12.852-17.184,17.185,12.852Zm-11.821-13.626,11.047,8.262,8.262-11.047-11.047-8.262Z" transform="translate(-1955.315 -1457.841)"/>
                </g>
                <rect id="Rectangle_5" data-name="Rectangle 5" class="cls-18" width="9.58" height="72.807" transform="translate(27.378 30.483) rotate(-53.207)"/>
              </g>
            </g>
          </g>
          <g id="Group_27" data-name="Group 27" transform="translate(81.471 27.861)">
            <path id="Path_27" data-name="Path 27" class="cls-19" d="M2372.7,1003.976l-.025-.018a1.843,1.843,0,0,1-.77-1.366l-.387-6.36a1.91,1.91,0,1,1,3.815-.209l.242,4.186,20.463-4.065a1.916,1.916,0,0,1,.746,3.759l-22.593,4.456A1.873,1.873,0,0,1,2372.7,1003.976Z" transform="translate(-2371.52 -994.213)"/>
          </g>
          <g id="Group_28" data-name="Group 28" transform="translate(40.389 82.79)">
            <path id="Path_28" data-name="Path 28" class="cls-20" d="M2106.208,1360.3l-.024-.018a1.841,1.841,0,0,1-.77-1.366l-.387-6.361a1.91,1.91,0,1,1,3.815-.209l.242,4.186,20.463-4.065a1.916,1.916,0,0,1,.746,3.759l-22.593,4.456A1.871,1.871,0,0,1,2106.208,1360.3Z" transform="translate(-2105.023 -1350.536)"/>
          </g>
          <g id="Group_29" data-name="Group 29" transform="translate(20.422 109.487)">
            <path id="Path_29" data-name="Path 29" class="cls-21" d="M1976.681,1533.483l-.024-.019a1.84,1.84,0,0,1-.769-1.366l-.387-6.361a1.91,1.91,0,1,1,3.815-.209l.242,4.186,20.463-4.065a1.916,1.916,0,0,1,.746,3.759l-22.593,4.457A1.872,1.872,0,0,1,1976.681,1533.483Z" transform="translate(-1975.497 -1523.72)"/>
          </g>
          <g id="Group_32" data-name="Group 32" transform="translate(60.003 47.813)">
            <g id="Group_30" data-name="Group 30" transform="translate(9.41)">
              <path id="Path_30" data-name="Path 30" class="cls-22" d="M2297.238,1149.083a1.912,1.912,0,0,1-.749-1.261l-3.172-21.991a1.916,1.916,0,0,1,3.793-.547l3.172,21.991a1.916,1.916,0,0,1-3.044,1.808Z" transform="translate(-2293.297 -1123.641)"/>
            </g>
            <g id="Group_31" data-name="Group 31" transform="translate(0 9.41)">
              <path id="Path_31" data-name="Path 31" class="cls-23" d="M2233.025,1191.3a1.916,1.916,0,0,1,.874-3.431l21.991-3.172a1.916,1.916,0,0,1,.547,3.793l-21.991,3.172A1.911,1.911,0,0,1,2233.025,1191.3Z" transform="translate(-2232.257 -1184.682)"/>
            </g>
          </g>
        </g>
        <path id="Path_32" data-name="Path 32" class="cls-24" d="M2909.359,1800.824c-1.128-2.223-1.594-2.209-1.871-3.382-.632-2.673,1-6.068,2.382-6.115.892-.03.965,1.355,2.852,3.515,2.312,2.646,3.715,2.3,5.075,4.6.318.537,1.75,2.956.87,4.76-1.124,2.3-5.556,2.668-7.408.891C2910.38,1804.246,2910.749,1803.562,2909.359,1800.824Z" transform="translate(-2743.277 -1640.586)"/>
        <path id="Path_33" data-name="Path 33" class="cls-25" d="M2850.83,1866.306a30.538,30.538,0,0,0-.265,8.9c.592,3.608,7.274,7.355,8.555,8.43s-3.4,2.24-7.689,1.679-16.041-4.321-17.826-6.417,2.079-1.063,5.329-1.46,6.353-5.844,6.447-8.624S2850.83,1866.306,2850.83,1866.306Z" transform="translate(-2680.52 -1704.001)"/>
        <g id="Group_34" data-name="Group 34" transform="translate(162.127 157.658)">
          <path id="Path_34" data-name="Path 34" class="cls-26" d="M2900.811,1844.333a5.461,5.461,0,0,1-5.33-.76c-2.242-1.793,1.091-7.3,3.372-7.369a3.614,3.614,0,0,1,2.526,1.319c.388.471.411.785,1.058,1.542.6.7.86.761.951,1.1.114.424-.082,1.133-1.616,2.352a1.558,1.558,0,0,1,1.679.506.982.982,0,0,1,.1.523C2903.459,1844.376,2902.374,1844.761,2900.811,1844.333Z" transform="translate(-2894.738 -1836.203)"/>
        </g>
        <path id="Path_35" data-name="Path 35" class="cls-27" d="M2424.547,1715.3s-1.99-.277-1.369-4.077c.486-2.978.118-3.98-.585-3.452s-.8,2.249-.8,2.249a14.081,14.081,0,0,1-3.621-5.053c-1.056-2.866-1.735-.453-1.961.981s1.509,5.883,2.489,6.713,2.414,4.486,2.414,4.486Z" transform="translate(-2327.832 -1566.411)"/>
        <path id="Path_36" data-name="Path 36" class="cls-28" d="M2881.534,3141.345c1.024,2.088.736,2.985.482,3.38-.747,1.158-2.546.064-7.241.621a7.884,7.884,0,0,1-2.913-.1c-1.124-.265-2.448-.863-2.392-1.164.021-.109.22-.153.3-.169,1.3-.278,9.459-2.781,9.459-2.781Z" transform="translate(-2711.236 -2782.311)"/>
        <path id="Path_37" data-name="Path 37" class="cls-29" d="M2931.89,3111.607l-.728,4.667s-2,1.417-2.532-.3a24.167,24.167,0,0,1-.368-4.573Z" transform="translate(-2760.966 -2757.164)"/>
        <path id="Path_38" data-name="Path 38" class="cls-30" d="M2803.521,3114.513l1.968,5.374,2.86-.456-.663-4.977Z" transform="translate(-2655.455 -2759.749)"/>
        <path id="Path_39" data-name="Path 39" class="cls-31" d="M2781.873,3140.347c1.385-1.643,2.621-1.494,2.87-2.623a2.312,2.312,0,0,0-1.167-2.388c-1.152-.581-2.547.326-2.862.531-2.141,1.392-1.558,3.569-3.577,4.513a5.416,5.416,0,0,0-1.729,1.028c-.288.27-1,.939-.835,1.4.194.533,1.467.514,2.677.5a5.279,5.279,0,0,0,2.877-.467C2781.094,3142.233,2780.8,3141.615,2781.873,3140.347Z" transform="translate(-2630.948 -2777.25)"/>
        <path id="Path_40" data-name="Path 40" class="cls-32" d="M2893.756,2388.516a153.986,153.986,0,0,1-3.852,27.679c-1.9,8.127-2.938,9.517-3.6,15.15-1.436,12.26,2.486,14.1,2.915,28.005a84.587,84.587,0,0,1-5.567,32.063,87.939,87.939,0,0,1-4.177,9.54c-1.433,1.2-3.572.679-5.828.17-.537-13.926-1.3-27.036-1.833-40.961q-3.365-31.47-6.731-62.937Z" transform="translate(-2707.528 -2145.717)"/>
        <path id="Path_41" data-name="Path 41" class="cls-33" d="M2873.649,2501.124c-.537-13.926-1.3-27.036-1.833-40.961q-3.365-31.47-6.731-62.937l28.672-8.709c-.035.719-.086,1.412-.13,2.117-13.563,11.278-16.366,20.382-16.37,26.633,0,7.582,4.059,11.427,3.013,22.4-.748,7.844-3.139,9.177-3.29,16.266-.195,9.128,3.614,14.345,5.408,19.661,1.735,5.138,2.237,12.373-1.546,22.568-.491,1.051-.953,1.99-1.365,2.8C2878.044,2502.149,2875.905,2501.633,2873.649,2501.124Z" transform="translate(-2707.528 -2145.717)"/>
        <path id="Path_42" data-name="Path 42" class="cls-34" d="M2710.958,2362.127a107.631,107.631,0,0,0-16.336,27.276c-3.405,8.3-5.874,14.519-5.1,22.575.852,8.866,4.872,12.052,7.542,19.611,2.59,7.331,3.852,18.61-2.9,35.4l-5.1,1.765c-1.13-4.535-2.957-11.32-5.689-19.4a263.7,263.7,0,0,0-12.27-29.821c-5.14-11.525-5.659-32.1,15.734-71.8Z" transform="translate(-2540.943 -2111.215)"/>
        <path id="Path_43" data-name="Path 43" class="cls-35" d="M2436.022,1759.862l6.79-4.755c2.754,16.928,9.013,23.571,14.33,26.478,12.826,7.01,24.273-5.482,48.822-.384,6.765,1.4,18.557,4.022,25.095,13.659,1.719,2.533,2.331,4.451,5.185,22.624,3.648,23.23,3.778,27.284,3.263,32.286-.941,9.154-1.512,14.7-5.732,19.611-11.208,13.037-35.028,6.315-38.015,5.431-5.517-1.634-14.092-4.174-17.5-11.465-1.6-3.43-1.433-6.566,1.031-19.11,4.881-24.849,5.5-26.457,4.141-29.179-4.6-9.183-19.163-3.928-31.468-12.468C2444.77,1797.6,2436.66,1786.715,2436.022,1759.862Z" transform="translate(-2344.608 -1609.95)"/>
        <path id="Path_44" data-name="Path 44" class="cls-36" d="M2539.222,2064.173c-2.4-4.926.826-9.466-2.715-15.387-4.513-7.546-12.633-4.984-15.688-10.56-5.226-9.535,15.342-22.834,11.163-38.015-2-7.248-8.963-12.494-14.783-14.482-12.922-4.412-21.375,6.835-33.489,3.319a20.8,20.8,0,0,1-9.5-6.145,30.293,30.293,0,0,0,10.056,12.366c12.3,8.54,26.871,3.285,31.468,12.468,1.362,2.721.739,4.329-4.141,29.179-2.463,12.544-2.634,15.68-1.031,19.11,3.407,7.29,11.982,9.831,17.5,11.465a62.958,62.958,0,0,0,18.147,2.5C2542.354,2068.423,2540.281,2066.347,2539.222,2064.173Z" transform="translate(-2376.907 -1802.632)"/>
      </g>
      <g id="Group_36" data-name="Group 36" transform="translate(21.859 15.085)">
        <path id="Path_45" data-name="Path 45" class="cls-37" d="M656.573,597.129c0,25.971-20.928,48.424-46.823,50.155-25.984,1.737-47.113-18.035-47.113-44.167s21.129-48.6,47.113-50.174C635.645,551.373,656.573,571.158,656.573,597.129Z" transform="translate(-562.637 -552.856)"/>
        <path id="Path_46" data-name="Path 46" class="cls-38" d="M692.631,607.921c0,25.972-20.928,48.424-46.823,50.156-25.984,1.737-47.113-18.035-47.113-44.167s21.129-48.6,47.113-50.174C671.7,562.165,692.631,581.95,692.631,607.921Z" transform="translate(-593.136 -561.984)"/>
        <path id="Path_47" data-name="Path 47" class="cls-7" d="M764.5,737.456a5.4,5.4,0,0,1-4.986-2.507L741.81,706.518a6.067,6.067,0,0,1,2-8.151,5.636,5.636,0,0,1,8,1.5L764.081,719.6l16.2-33a6.067,6.067,0,0,1,7.8-3.035,5.593,5.593,0,0,1,2.536,7.683l-20.937,42.676a6.313,6.313,0,0,1-4.977,3.511C764.637,737.446,764.569,737.451,764.5,737.456Z" transform="translate(-713.484 -663.009)"/>
      </g>
      <g id="Group_38" data-name="Group 38" transform="translate(14.989 206.794)">
        <path id="Path_48" data-name="Path 48" class="cls-39" d="M1021.719,3205.678a16.621,16.621,0,0,0-.113,3.65c.231.916,8.181,1.578,10.879,1.26s-1.607-3.075-3.327-3.593S1021.719,3205.678,1021.719,3205.678Z" transform="translate(-943.916 -2988.442)"/>
        <path id="Path_49" data-name="Path 49" class="cls-40" d="M1026.158,3174.743l-.838,5.486s-2.137.96-3.164.011l-.113-5.742Z" transform="translate(-944.353 -2962.068)"/>
        <path id="Path_50" data-name="Path 50" class="cls-41" d="M714.842,3172.506s1.687,1.252,1.237,2.751-4.386,7.506-7.191,9.211-1.926-1.847-1.109-4.059,2.9-7.085,3.716-7.9S714.842,3172.506,714.842,3172.506Z" transform="translate(-677.854 -2960.077)"/>
        <path id="Path_51" data-name="Path 51" class="cls-42" d="M732.793,3135.4c-.815,2.273-1.6,4.142-2.213,5.52a19.7,19.7,0,0,1-2.939,5.186c-.733.864-2.467,2.708-2.933,2.4s.8-2.553,3.241-9.117c.355-.953,1.477-3.989,1.477-3.989h3.367Z" transform="translate(-692.77 -2929)"/>
        <path id="Path_52" data-name="Path 52" class="cls-43" d="M1009.268,2518.429a142.029,142.029,0,0,1,.305,25.342c-1.088,14.021-3.892,22.894-7.408,37.843-2.149,9.137-5.044,22.583-7.664,39.4a7.4,7.4,0,0,1-4.7.921,7.144,7.144,0,0,1-2.823-1.072c-6.874-21.007-4.844-34.024-1.527-42.135,1.414-3.457,3.129-6.184,4.045-11.5,1.213-7.031-.287-10.961-2.425-27.247-1.524-11.608-1.26-13.4-.246-15.143C990.88,2517.881,1003.278,2518.016,1009.268,2518.429Z" transform="translate(-910.814 -2407)"/>
        <path id="Path_53" data-name="Path 53" class="cls-44" d="M782.938,2535.154c-4.211,21.749-8.345,33.172-11.472,39.633a108.543,108.543,0,0,0-5.778,14.1,114.916,114.916,0,0,0-3.511,13.435c-1.452,6.667-5.04,16.4-14.7,29.168a3.669,3.669,0,0,1-3.341.172,3.226,3.226,0,0,1-1.351-1.4c1.262-12.206,2.711-22.463,3.969-30.38.264-1.66,1.426-8.925,3.249-18.521.713-3.756,1.758-9.259,3.01-14.911,1.559-7.039,3.949-16.615,7.633-28.089Z" transform="translate(-708.146 -2421.282)"/>
        <path id="Path_54" data-name="Path 54" class="cls-45" d="M596.447,1824.316c2.388-2.208,6.958-4.752,9.249-10.669.69-1.781,3.134-8.091-.471-12.917-2.14-2.865-6.114-4.811-9.618-4.122-2.994.589-3.462,2.674-8.549,6.87a35.978,35.978,0,0,1-8.705,5.718c-6.069,2.5-9.715.148-15.808.416-7.485.33-16.18,4.507-20.37,10.582-7.435,10.781,3.336,21.718-4.809,34.349-2.669,4.138-3.984,3.21-10.3,11.22s-9.494,12.031-8.931,16.945c.782,6.821,8.128,13.336,15.046,13.779,6.758.433,11.054-4.884,14.494-2.558,2.449,1.655,1.049,4.874,3.649,8.743,3.352,4.988,9.942,5.982,11.006,6.142,9.878,1.49,23.2-10.093,28.853-23.815C601.38,1860.253,583.462,1836.318,596.447,1824.316Z" transform="translate(-518.068 -1796.469)"/>
        <path id="Path_55" data-name="Path 55" class="cls-46" d="M661.129,1935.331c.067-6.907-15.623-12.427-22.8-14.206a50.818,50.818,0,0,0-22.283-.57,49.771,49.771,0,0,0-25.867,14.821,34.9,34.9,0,0,1,13.7,17.129c1.137,3.135,4.495,13.853-.308,23.892-2.767,5.785-7.663,10.127-11.381,13.426-5.577,4.948-8.465,5.708-10.335,10.14-2.036,4.827.016,7.18-2.513,10.484-2.715,3.549-5.9,1.9-10.5,5.488-4.715,3.675-3.037,6.7-7.328,10.762-6.235,5.9-14.5,3.985-14.884,6.641-.331,2.284,5.543,5.384,10.534,6.641,9.883,2.489,18.5-1.689,21.067-2.977,7.1-3.566,5.871-5.874,11.282-8.592,9.061-4.552,15.253.513,35.89,1.035,11.176.283,16.826.346,19.922-3.435,2.827-3.453,1.341-7.242-.356-23.568-.808-7.771-1.1-15.587-1.694-23.376-1.683-22.034-1.735-23.973-.24-27.02C648.392,1941.134,661.069,1941.53,661.129,1935.331Z" transform="translate(-542.218 -1900.614)"/>
        <g id="Group_37" data-name="Group 37" class="cls-47" transform="translate(4.402 33.837)">
          <path id="Path_56" data-name="Path 56" class="cls-48" d="M561.518,2108.214c4.291-4.062,2.613-7.087,7.328-10.762,4.6-3.589,7.784-1.939,10.5-5.488,2.528-3.3.477-5.658,2.513-10.484,1.87-4.432,4.758-5.193,10.335-10.14,3.718-3.3,8.614-7.642,11.381-13.426,4.8-10.039,1.445-20.757.308-23.892a34.9,34.9,0,0,0-13.7-17.129c.257-.277.561-.593.885-.926,17.614,2.42,27.883,12.6,29.153,15.612,2.936,6.967-1.712,9.526-1.832,29.617-.057,9.6.979,13.4-2.137,17.4-3.564,4.584-7.67,3.165-12.824,9.159-3.959,4.6-3.325,7.525-7.022,9.465-3.975,2.086-6.508-.345-10.992.611-7.491,1.6-9.092,10.235-14.044,14.96-3.745,3.573-10.669,6.072-24.324,3.39a1.9,1.9,0,0,1-.407-1.329C547.019,2112.2,555.284,2114.116,561.518,2108.214Z" transform="translate(-546.621 -2015.966)"/>
        </g>
        <path id="Path_57" data-name="Path 57" class="cls-49" d="M762.956,1976.619c1.872,3.976-6.731,13.237-16.294,17.634-1.948.9-15.94,7.329-22.176,1.143-5.153-5.112-1.827-15.682-.64-19.456,5.83-18.531,23.734-27.957,31.237-31.357,5.6,14,2.3,20.241,1,22.189a74.641,74.641,0,0,1-9.16,10.076c-2.827,2.649-4.588,3.938-4.351,4.351.295.514,3.609-.457,16.48-6.722C760.548,1974.718,762.317,1975.261,762.956,1976.619Z" transform="translate(-690.302 -1921.751)"/>
        <path id="Path_58" data-name="Path 58" class="cls-50" d="M1017.66,1987.243l-6.315,31.452a2.581,2.581,0,0,1-1.989,2.015l-47.092,10.106a2.581,2.581,0,0,1-3.114-2.723l2.485-31.988a2.579,2.579,0,0,1,1.954-2.305c7.47-1.844,36.223-8.748,51.388-9.645A2.58,2.58,0,0,1,1017.66,1987.243Z" transform="translate(-891.147 -1955.219)"/>
        <path id="Path_59" data-name="Path 59" class="cls-51" d="M974.554,1855.2s-.888,7.1-3.509,8.728-6.858,3.752-7.325,4.329,16.237,2.372,24.515-1.8h0c-2.728-.569-3.47-.778-3.47-.778a15.351,15.351,0,0,1-3.506-1.387,11.919,11.919,0,0,1-3.854-3.564l.03-3.932Z" transform="translate(-895.012 -1846.146)"/>
        <path id="Path_60" data-name="Path 60" class="cls-52" d="M1022.649,1835.671a3.931,3.931,0,0,0,4.389,1.368c2.4-.875.967-7.073-.936-7.78a3.367,3.367,0,0,0-2.58.355,3.733,3.733,0,0,0-1.173,4.2c-.606-.175-1.14-.016-1.273.284-.17.381.344.9.46,1.017A2.037,2.037,0,0,0,1022.649,1835.671Z" transform="translate(-943.506 -1824.102)"/>
        <path id="Path_61" data-name="Path 61" class="cls-53" d="M1002.45,2014.437c5.057-1.426,9.252,2.115,13.281-.687,4.128-2.87,1.434-7.773,5.725-12.595,4.588-5.155,10.409-2.63,14.655-7.328,1.576-1.744,2.995-4.586,3.017-9.432,1.064-.1,2.083-.184,3.046-.241a2.58,2.58,0,0,1,2.684,3.088l-6.316,31.452a2.579,2.579,0,0,1-1.989,2.015l-45.257,9.713C994.493,2019.211,998.757,2015.478,1002.45,2014.437Z" transform="translate(-918.346 -1955.218)"/>
        <path id="Path_62" data-name="Path 62" class="cls-54" d="M1300.894,2043.283s3-2.777,3.331-6a6.225,6.225,0,0,0-4.136-6.464c-2.2-.658-3.368.313-1.894,3.488S1302.007,2039.543,1300.894,2043.283Z" transform="translate(-1177.379 -1994.526)"/>
      </g>
    </g>
  </g>
</svg>
